<?xml version="1.0" standalone="yes"?>
<svg xmlns="http://www.w3.org/2000/svg" width="256" height="256">
<path style="fill:#010101; stroke:none;" d="M0 0L0 110L1 110C6.77799 37.3945 86.2894 -10.5154 154 3.66513C169.97 7.00966 185.417 13.2954 199 22.3549C203.93 25.6429 213.012 36.4462 219 36.169C224.589 35.9102 231.593 28.1656 236 25L243 106L166 75L166 74L186 60C170.393 48.822 153.485 40.425 134 39.0895C89.2398 36.0215 41.8159 69.2815 38 116L0 116L0 256L256 256L256 152L255 152C245.774 223.441 168.455 267.406 101 252.112C85.799 248.665 71.0418 242.491 58 233.921C52.5721 230.355 44.2398 219.779 38 219.022C32.3429 218.337 24.974 226.637 20 229L13 146L90 182C86.3497 185.113 72.2068 192.018 72.2068 197.053C72.2068 202 83.2938 206.824 87 208.742C104.18 217.631 121.841 220.777 141 218.831C167.53 216.136 192.118 200.314 206.305 178C210.605 171.237 213.267 153.122 219.419 149.028C226.723 144.167 247.258 148 256 148L256 0L0 0z"/>
<path style="fill:#ffffff; stroke:none;" d="M0 116L38 116C44.044 71.1164 88.5499 34.827 134 39.1698C154.572 41.1353 168.246 51.1678 186 60L166 74L166 75C189.016 87.2577 217.842 99.1191 243 106L236 25C231.007 27.4865 224.584 35.3813 219 35.5432C213.155 35.7127 203.918 24.898 199 21.6952C185.461 12.8779 169.904 6.45938 154 3.45987C83.9984 -9.74207 1.58773 39.0759 0 116M13 146L20 229C25.3461 227.294 32.4638 218.81 38 219.73C44.3162 220.78 52.3874 230.99 58 234.564C71.2878 243.024 86.4738 249.612 102 252.54C170.72 265.5 249.865 223.116 256 148L229 148C226.043 148 221.225 147.127 218.703 149.028C213.29 153.108 211.267 168.748 207.547 175C197.512 191.868 182.235 205.16 164 212.547C140.805 221.943 114.563 221.96 92 210.752C87.6695 208.601 73.0556 202.808 73.0556 197.053C73.0556 191.991 86.7675 185.914 90 182L13 146z"/>
</svg>
